<svg xmlns="http://www.w3.org/2000/svg" viewBox="0 0 24 24" fill="none" stroke="url(#gradient)" stroke-width="2" stroke-linecap="round" stroke-linejoin="round">
  <defs>
    <linearGradient id="gradient" x1="0%" y1="0%" x2="100%" y2="100%">
      <stop offset="0%" style="stop-color:#2563eb" />
      <stop offset="100%" style="stop-color:#9333ea" />
    </linearGradient>
  </defs>
  <path d="M9.5 2A2.5 2.5 0 0 1 12 4.5v15a2.5 2.5 0 0 1-5 0v-15A2.5 2.5 0 0 1 9.5 2Z" />
  <path d="M14.5 2A2.5 2.5 0 0 0 12 4.5v15a2.5 2.5 0 0 0 5 0v-15A2.5 2.5 0 0 0 14.5 2Z" />
  <path d="M12 4.5v15" />
  <path d="M9.5 7h5" />
  <path d="M9.5 12h5" />
  <path d="M9.5 17h5" />
</svg> 